HIERARCHY
ROOT hips
{
	OFFSET -0.003675 0.299928 -0.021708
	CHANNELS 6 Xposition Yposition Zposition Xrotation Yrotation Zrotation
	JOINT LowerBack
	{
		OFFSET 0.000919 0.177588 0.009275
		CHANNELS 3 Xrotation Yrotation Zrotation
		JOINT spine
		{
			OFFSET 0.000919 0.177588 0.009275
			CHANNELS 3 Xrotation Yrotation Zrotation
			JOINT chest
			{
				OFFSET 0.000456 0.100015 0.004638
				CHANNELS 3 Xrotation Yrotation Zrotation
				JOINT neck
				{
					OFFSET 0.000456 0.100015 0.004638
					CHANNELS 3 Xrotation Yrotation Zrotation
					JOINT head
					{
						OFFSET 0.000924 0.155147 0.009274
						CHANNELS 6 Xposition Yposition Zposition Xrotation Yrotation Zrotation
						End Site
						{
							OFFSET 0.000000 0.153400 0.000000
						}
					}
				}
				JOINT shoulder.L
				{
					OFFSET 0.019937 0.078966 0.057518
					CHANNELS 6 Xposition Yposition Zposition Yrotation Xrotation Zrotation
					JOINT upper_arm.L
					{
						OFFSET 0.177024 -0.020465 -0.095062
						CHANNELS 6 Xposition Yposition Zposition Xrotation Yrotation Zrotation
						JOINT forearm.L
						{
							OFFSET 0.247100 -0.135500 -0.061800
							CHANNELS 3 Xrotation Yrotation Zrotation
							JOINT hand.L
							{
								OFFSET 0.217000 -0.143000 0.039300
								CHANNELS 3 Xrotation Yrotation Zrotation
								JOINT palm.01.L
								{
									OFFSET 0.021770 -0.038291 0.012954
									CHANNELS 6 Xposition Yposition Zposition Yrotation Xrotation Zrotation
									JOINT f_index.01.L
									{
										OFFSET 0.053215 -0.044137 0.008236
										CHANNELS 3 Xrotation Yrotation Zrotation
										JOINT f_index.02.L
										{
											OFFSET 0.036108 -0.024723 -0.010656
											CHANNELS 3 Xrotation Yrotation Zrotation
											JOINT f_index.03.L
											{
												OFFSET 0.021342 -0.014948 -0.010846
												CHANNELS 3 Xrotation Yrotation Zrotation
												End Site
												{
													OFFSET 0.015600 -0.009860 -0.013421
												}
											}
										}
									}
									JOINT thumb.01.L
									{
										OFFSET -0.009090 -0.002348 -0.024223
										CHANNELS 6 Xposition Yposition Zposition Xrotation Yrotation Zrotation
										JOINT thumb.02.L
										{
											OFFSET 0.019713 -0.035076 -0.011120
											CHANNELS 3 Xrotation Yrotation Zrotation
											JOINT thumb.03.L
											{
												OFFSET 0.024877 -0.021748 -0.005176
												CHANNELS 3 Xrotation Yrotation Zrotation
												End Site
												{
													OFFSET 0.016125 -0.013029 -0.001569
												}
											}
										}
									}
								}
								JOINT palm.02.L
								{
									OFFSET 0.032823 -0.025104 0.012281
									CHANNELS 6 Xposition Yposition Zposition Yrotation Xrotation Zrotation
									JOINT f_middle.01.L
									{
										OFFSET 0.055723 -0.038469 0.008037
										CHANNELS 3 Xrotation Yrotation Zrotation
										JOINT f_middle.02.L
										{
											OFFSET 0.038167 -0.027473 -0.015582
											CHANNELS 3 Xrotation Yrotation Zrotation
											JOINT f_middle.03.L
											{
												OFFSET 0.021707 -0.016587 -0.017037
												CHANNELS 3 Xrotation Yrotation Zrotation
												End Site
												{
													OFFSET 0.014112 -0.010584 -0.014294
												}
											}
										}
									}
								}
								JOINT palm.03.L
								{
									OFFSET 0.039230 -0.011402 0.008390
									CHANNELS 6 Xposition Yposition Zposition Yrotation Xrotation Zrotation
									JOINT f_ring.01.L
									{
										OFFSET 0.061796 -0.031470 0.007910
										CHANNELS 3 Xrotation Yrotation Zrotation
										JOINT f_ring.02.L
										{
											OFFSET 0.033092 -0.023401 -0.019127
											CHANNELS 3 Xrotation Yrotation Zrotation
											JOINT f_ring.03.L
											{
												OFFSET 0.021392 -0.015362 -0.017824
												CHANNELS 3 Xrotation Yrotation Zrotation
												End Site
												{
													OFFSET 0.008670 -0.007297 -0.014686
												}
											}
										}
									}
								}
								JOINT palm.04.L
								{
									OFFSET 0.043417 0.002450 0.002889
									CHANNELS 6 Xposition Yposition Zposition Yrotation Xrotation Zrotation
									JOINT f_pinky.01.L
									{
										OFFSET 0.069986 -0.026156 0.003627
										CHANNELS 3 Xrotation Yrotation Zrotation
										JOINT f_pinky.02.L
										{
											OFFSET 0.018520 -0.012813 -0.016429
											CHANNELS 3 Xrotation Yrotation Zrotation
											JOINT f_pinky.03.L
											{
												OFFSET 0.013822 -0.009796 -0.014947
												CHANNELS 3 Xrotation Yrotation Zrotation
												End Site
												{
													OFFSET 0.007238 -0.006103 -0.011657
												}
											}
										}
									}
								}
							}
						}
					}
				}
				JOINT shoulder.R
				{
					OFFSET -0.016662 0.078957 0.057696
					CHANNELS 6 Xposition Yposition Zposition Yrotation Xrotation Zrotation
					JOINT upper_arm.R
					{
						OFFSET -0.176972 -0.020537 -0.095144
						CHANNELS 6 Xposition Yposition Zposition Xrotation Yrotation Zrotation
						JOINT forearm.R
						{
							OFFSET -0.247100 -0.135500 -0.061800
							CHANNELS 3 Xrotation Yrotation Zrotation
							JOINT hand.R
							{
								OFFSET -0.217000 -0.143000 0.039300
								CHANNELS 3 Xrotation Yrotation Zrotation
								JOINT palm.01.R
								{
									OFFSET -0.021773 -0.038278 0.012988
									CHANNELS 6 Xposition Yposition Zposition Yrotation Xrotation Zrotation
									JOINT f_index.01.R
									{
										OFFSET -0.053212 -0.044139 0.008249
										CHANNELS 3 Xrotation Yrotation Zrotation
										JOINT f_index.02.R
										{
											OFFSET -0.036049 -0.024835 -0.010634
											CHANNELS 3 Xrotation Yrotation Zrotation
											JOINT f_index.03.R
											{
												OFFSET -0.021371 -0.014881 -0.010866
												CHANNELS 3 Xrotation Yrotation Zrotation
												End Site
												{
													OFFSET -0.015584 -0.009883 -0.013422
												}
											}
										}
									}
									JOINT thumb.01.R
									{
										OFFSET 0.009113 -0.002381 -0.024211
										CHANNELS 6 Xposition Yposition Zposition Xrotation Yrotation Zrotation
										JOINT thumb.02.R
										{
											OFFSET -0.019694 -0.035097 -0.011088
											CHANNELS 3 Xrotation Yrotation Zrotation
											JOINT thumb.03.R
											{
												OFFSET -0.024867 -0.021762 -0.005168
												CHANNELS 3 Xrotation Yrotation Zrotation
												End Site
												{
													OFFSET -0.016120 -0.013036 -0.001565
												}
											}
										}
									}
								}
								JOINT palm.02.R
								{
									OFFSET -0.032828 -0.025095 0.012286
									CHANNELS 6 Xposition Yposition Zposition Yrotation Xrotation Zrotation
									JOINT f_middle.01.R
									{
										OFFSET -0.055721 -0.038472 0.008040
										CHANNELS 3 Xrotation Yrotation Zrotation
										JOINT f_middle.02.R
										{
											OFFSET -0.038101 -0.027593 -0.015557
											CHANNELS 3 Xrotation Yrotation Zrotation
											JOINT f_middle.03.R
											{
												OFFSET -0.021730 -0.016530 -0.017054
												CHANNELS 3 Xrotation Yrotation Zrotation
												End Site
												{
													OFFSET -0.014096 -0.010608 -0.014293
												}
											}
										}
									}
								}
								JOINT palm.03.R
								{
									OFFSET -0.039192 -0.011488 0.008390
									CHANNELS 6 Xposition Yposition Zposition Yrotation Xrotation Zrotation
									JOINT f_ring.01.R
									{
										OFFSET -0.061839 -0.031387 0.007876
										CHANNELS 3 Xrotation Yrotation Zrotation
										JOINT f_ring.02.R
										{
											OFFSET -0.033068 -0.023437 -0.019125
											CHANNELS 3 Xrotation Yrotation Zrotation
											JOINT f_ring.03.R
											{
												OFFSET -0.021371 -0.015393 -0.017822
												CHANNELS 3 Xrotation Yrotation Zrotation
												End Site
												{
													OFFSET -0.008654 -0.007321 -0.014684
												}
											}
										}
									}
								}
								JOINT palm.04.R
								{
									OFFSET -0.043421 0.002443 0.002845
									CHANNELS 6 Xposition Yposition Zposition Yrotation Xrotation Zrotation
									JOINT f_pinky.01.R
									{
										OFFSET -0.069983 -0.026169 0.003599
										CHANNELS 3 Xrotation Yrotation Zrotation
										JOINT f_pinky.02.R
										{
											OFFSET -0.018501 -0.012842 -0.016428
											CHANNELS 3 Xrotation Yrotation Zrotation
											JOINT f_pinky.03.R
											{
												OFFSET -0.013806 -0.009821 -0.014946
												CHANNELS 3 Xrotation Yrotation Zrotation
												End Site
												{
													OFFSET -0.007226 -0.006121 -0.011655
												}
											}
										}
									}
								}
							}
						}
					}
				}
			}
		}
	}
	JOINT pelvis.L
	{
		OFFSET 0.000000 0.000000 0.000000
		CHANNELS 6 Xposition Yposition Zposition Xrotation Yrotation Zrotation
		JOINT thigh.L
		{
			OFFSET 0.101675 0.001054 -0.000000
			CHANNELS 3 Xrotation Yrotation Zrotation
			JOINT shin.L
			{
				OFFSET 0.000000 -0.534800 0.041000
				CHANNELS 3 Xrotation Yrotation Zrotation
				JOINT foot.L
				{
					OFFSET 0.000000 -0.452000 -0.044800
					CHANNELS 3 Xrotation Yrotation Zrotation
					JOINT toe.L
					{
						OFFSET -0.000000 -0.068500 0.109600
						CHANNELS 3 Xrotation Yrotation Zrotation
						End Site
						{
							OFFSET -0.000000 0.000000 0.067200
						}
					}
				}
				JOINT heel.L
				{
					OFFSET 0.000000 -0.452000 -0.044800
					CHANNELS 3 Xrotation Yrotation Zrotation
					JOINT heel.02.L
					{
						OFFSET -0.038000 -0.085200 0.016200
						CHANNELS 6 Xposition Yposition Zposition Xrotation Yrotation Zrotation
						End Site
						{
							OFFSET 0.080000 -0.000000 0.000000
						}
					}
				}
			}
		}
	}
	JOINT pelvis.R
	{
		OFFSET 0.000000 0.000000 0.000000
		CHANNELS 6 Xposition Yposition Zposition Xrotation Yrotation Zrotation
		JOINT thigh.R
		{
			OFFSET -0.094325 0.001054 0.000000
			CHANNELS 3 Xrotation Yrotation Zrotation
			JOINT shin.R
			{
				OFFSET 0.000000 -0.534800 0.041000
				CHANNELS 3 Xrotation Yrotation Zrotation
				JOINT foot.R
				{
					OFFSET 0.000000 -0.452000 -0.044800
					CHANNELS 3 Xrotation Yrotation Zrotation
					JOINT toe.R
					{
						OFFSET -0.000000 -0.068500 0.109600
						CHANNELS 3 Xrotation Yrotation Zrotation
						End Site
						{
							OFFSET -0.000000 0.000000 0.067200
						}
					}
				}
				JOINT heel.R
				{
					OFFSET 0.000000 -0.452000 -0.044800
					CHANNELS 3 Xrotation Yrotation Zrotation
					JOINT heel.02.R
					{
						OFFSET 0.038000 -0.085200 0.016200
						CHANNELS 6 Xposition Yposition Zposition Xrotation Yrotation Zrotation
						End Site
						{
							OFFSET -0.080000 0.000000 -0.000000
						}
					}
				}
			}
		}
	}
}
MOTION
Frames: 4
Frame Time: 0.041667
-0.002776 0.216099 0.005487 32.413578 5.486425 90.007830 0.000000 -0.000001 0.000000 0.000001 -0.000003 -0.000001 -0.000000 -0.000004 0.000000 0.000000 -0.000004 0.000001 0.000924 0.155148 0.009274 -8.604044 0.028342 -4.382446 0.019937 0.078966 0.057518 -32.875657 11.153883 55.906977 0.177024 -0.020465 -0.095062 -48.062948 39.400998 -84.292690 -32.913169 -10.301308 -45.155368 -0.000007 0.000004 0.000000 0.021770 -0.038291 0.012954 0.000004 -0.000006 -0.000007 -0.000004 -0.000000 0.000001 -0.000000 -0.000002 0.000008 0.000003 0.000003 -0.000000 -0.009090 -0.002348 -0.024223 -0.000003 0.000001 0.000003 -0.000000 -0.000000 0.000001 0.000001 0.000001 -0.000002 0.032823 -0.025104 0.012281 0.000001 -0.000003 0.000002 -0.000004 0.000003 -0.000003 -0.000007 -0.000001 0.000003 0.000004 -0.000002 0.000004 0.039230 -0.011402 0.008390 -0.000000 -0.000003 0.000003 0.000000 -0.000002 0.000001 -0.000004 0.000003 -0.000001 0.000001 -0.000002 0.000003 0.043417 0.002450 0.002889 -0.000001 -0.000002 -0.000003 -0.000003 0.000003 -0.000002 0.000000 0.000001 0.000003 -0.000001 -0.000002 -0.000002 -0.016662 0.078956 0.057696 -26.712066 10.168476 -34.423344 -0.176972 -0.020537 -0.095144 -28.801948 -14.058143 62.118781 -52.830475 10.980878 48.847720 0.000001 -0.000000 0.000002 -0.021773 -0.038278 0.012988 0.000000 -0.000001 -0.000002 -0.000001 -0.000000 0.000006 -0.000004 -0.000003 -0.000010 0.000003 0.000002 0.000003 0.009114 -0.002381 -0.024211 0.000003 -0.000005 -0.000000 -0.000001 -0.000002 -0.000005 -0.000001 -0.000002 0.000001 -0.032828 -0.025095 0.012286 -0.000001 -0.000000 -0.000001 -0.000000 -0.000003 0.000002 0.000000 -0.000000 -0.000007 0.000003 0.000003 -0.000003 -0.039192 -0.011488 0.008390 -0.000002 -0.000000 0.000005 -0.000002 0.000003 0.000002 0.000004 -0.000003 -0.000000 -0.000006 0.000000 -0.000003 -0.043421 0.002443 0.002844 -0.000002 -0.000001 0.000002 -0.000007 0.000003 0.000001 -0.000001 0.000003 0.000002 0.000001 -0.000000 -0.000001 0.000000 0.000000 0.000000 -1.535750 1.104806 -14.684321 29.360190 -1.308383 -18.715309 20.037565 0.822731 -8.328629 -0.000002 -0.000003 -0.000000 -0.000002 -0.000003 0.000000 -0.000002 -0.000003 -0.000001 -0.038000 -0.085200 0.016200 -0.000002 -0.000005 -0.000002 0.000000 0.000000 0.000000 -1.467601 1.087705 -13.451447 21.908312 0.104243 2.514775 22.076404 1.498888 -15.307118 -0.000003 0.000002 -0.000001 0.000004 0.000000 0.000001 0.000003 0.000001 -0.000001 0.038000 -0.085200 0.016200 0.000001 -0.000002 0.000001 
-0.005388 0.211745 0.002332 56.379055 4.762976 86.393813 -0.000001 0.000002 -0.000000 -0.000000 -0.000000 0.000001 0.000001 0.000003 0.000001 0.000001 0.000003 -0.000000 0.000924 0.155148 0.009274 -8.759726 0.029769 3.826721 0.019937 0.078966 0.057518 -20.279672 8.202173 51.057126 0.177024 -0.020465 -0.095062 -53.342135 31.103326 -71.170107 -40.398554 -17.007528 -37.823573 -0.000002 -0.000001 -0.000000 0.021770 -0.038291 0.012954 0.000000 0.000000 0.000001 -0.000001 -0.000001 0.000007 -0.000002 -0.000000 0.000007 0.000002 0.000005 -0.000003 -0.009090 -0.002348 -0.024224 0.000000 0.000000 0.000001 -0.000001 -0.000000 0.000001 0.000001 0.000000 -0.000002 0.032823 -0.025104 0.012281 -0.000001 -0.000000 0.000005 0.000001 0.000004 -0.000003 -0.000003 -0.000004 0.000005 -0.000002 0.000000 -0.000001 0.039230 -0.011402 0.008390 0.000001 -0.000000 0.000008 0.000001 0.000002 -0.000002 0.000001 0.000003 0.000001 0.000003 -0.000003 0.000003 0.043417 0.002450 0.002889 0.000000 -0.000001 -0.000003 -0.000003 -0.000005 -0.000000 0.000000 0.000000 0.000001 -0.000001 0.000000 -0.000002 -0.016662 0.078957 0.057696 -13.507701 7.279906 -36.757814 -0.176972 -0.020537 -0.095144 -40.366623 -16.901599 61.365254 -52.964610 5.709519 54.852399 -0.000000 0.000001 -0.000004 -0.021773 -0.038278 0.012988 -0.000003 -0.000000 0.000000 0.000000 0.000002 0.000001 -0.000001 -0.000001 -0.000008 0.000000 0.000003 0.000002 0.009113 -0.002381 -0.024212 0.000000 0.000000 -0.000001 -0.000000 -0.000003 0.000002 0.000000 -0.000001 0.000001 -0.032828 -0.025095 0.012286 0.000001 0.000002 0.000001 0.000001 0.000004 0.000004 0.000001 -0.000006 -0.000001 -0.000000 0.000003 0.000001 -0.039192 -0.011488 0.008390 -0.000000 0.000004 -0.000000 0.000000 0.000001 0.000000 0.000002 0.000006 0.000000 0.000003 0.000003 0.000001 -0.043421 0.002443 0.002844 -0.000001 0.000002 -0.000003 -0.000000 0.000007 -0.000003 -0.000002 -0.000003 -0.000003 -0.000005 0.000000 -0.000002 0.000000 0.000000 -0.000000 -1.627712 1.468521 -18.575454 18.817620 -1.550699 -21.524132 11.669074 1.349926 -13.751998 -0.000002 0.000006 0.000003 0.000004 -0.000000 0.000001 0.000000 0.000004 0.000003 -0.038000 -0.085200 0.016200 0.000001 0.000006 0.000004 0.000000 0.000000 -0.000000 -1.544170 1.441401 -17.343396 13.498422 0.073132 1.555967 14.693111 2.400265 -25.018300 0.000000 -0.000001 0.000002 -0.000001 -0.000002 -0.000000 0.000005 0.000003 0.000002 0.038000 -0.085200 0.016200 -0.000002 0.000001 -0.000002 
-0.006047 0.213654 0.002720 59.330882 15.422333 85.470405 0.000001 0.000002 -0.000001 -0.000001 0.000004 -0.000000 -0.000002 -0.000001 0.000001 -0.000002 -0.000002 0.000000 0.000924 0.155147 0.009274 -9.461783 0.033547 1.342289 0.019937 0.078966 0.057518 -18.644584 6.156900 44.830951 0.177025 -0.020465 -0.095062 -42.902368 29.153324 -77.743563 -36.139856 -17.202262 -35.229634 0.000000 0.000000 -0.000004 0.021770 -0.038291 0.012954 0.000002 0.000005 0.000001 0.000002 -0.000002 0.000003 0.000000 0.000003 0.000005 -0.000001 -0.000002 -0.000001 -0.009090 -0.002348 -0.024224 -0.000000 -0.000003 0.000006 -0.000003 0.000001 0.000001 0.000001 0.000001 0.000004 0.032823 -0.025104 0.012281 0.000001 0.000003 0.000007 -0.000001 0.000001 -0.000003 -0.000004 0.000003 0.000001 -0.000001 0.000000 -0.000004 0.039230 -0.011402 0.008390 0.000002 0.000000 0.000008 0.000002 0.000000 -0.000000 0.000005 0.000003 0.000001 0.000003 -0.000006 0.000003 0.043417 0.002450 0.002889 -0.000001 0.000003 0.000003 -0.000004 -0.000006 -0.000004 0.000003 0.000002 -0.000001 0.000000 0.000003 -0.000005 -0.016662 0.078956 0.057696 -10.762974 5.636276 -33.832724 -0.176972 -0.020537 -0.095144 -36.289939 -14.248727 58.222090 -44.782870 10.172531 49.956704 -0.000002 -0.000003 -0.000003 -0.021773 -0.038278 0.012988 0.000001 0.000000 -0.000005 0.000001 0.000003 -0.000003 -0.000000 -0.000000 0.000001 0.000000 -0.000002 0.000002 0.009114 -0.002381 -0.024212 0.000001 0.000000 -0.000004 0.000002 0.000003 -0.000003 -0.000000 -0.000007 -0.000003 -0.032828 -0.025095 0.012286 0.000003 -0.000000 -0.000001 0.000002 0.000004 0.000003 -0.000001 -0.000001 -0.000001 -0.000003 -0.000004 -0.000001 -0.039192 -0.011488 0.008390 0.000001 0.000003 -0.000004 -0.000002 0.000007 -0.000002 -0.000000 0.000000 -0.000000 0.000001 0.000004 -0.000000 -0.043421 0.002443 0.002845 -0.000002 0.000001 -0.000001 -0.000002 0.000002 -0.000001 0.000000 0.000001 -0.000002 -0.000004 0.000005 -0.000002 -0.000000 0.000000 0.000000 -1.724552 1.620580 -19.886227 11.672252 -1.504727 -20.465641 0.603614 0.781590 -7.909152 -0.000002 -0.000001 -0.000002 0.000001 -0.000001 -0.000001 0.000002 -0.000004 -0.000002 -0.038000 -0.085200 0.016200 0.000004 0.000003 0.000001 -0.000000 0.000000 0.000000 -1.632364 1.588328 -18.654635 5.607733 0.109925 1.487054 17.403235 2.326076 -24.193621 -0.000003 0.000000 0.000002 0.000001 0.000004 0.000000 0.000005 -0.000002 -0.000000 0.038000 -0.085200 0.016200 -0.000003 0.000002 -0.000002 
-0.007096 0.215955 -0.000511 59.910567 22.944757 85.941914 0.000001 0.000002 -0.000001 0.000000 -0.000002 0.000001 0.000000 -0.000000 0.000000 0.000001 -0.000000 -0.000001 0.000924 0.155148 0.009274 -4.439394 0.017892 -1.995287 0.019937 0.078966 0.057518 -29.958815 8.111303 48.166323 0.177024 -0.020465 -0.095062 -40.509350 33.482526 -84.753960 -19.290935 -17.126139 -15.121289 -0.000001 0.000001 0.000005 0.021770 -0.038291 0.012954 0.000001 -0.000000 -0.000004 0.000001 0.000001 0.000002 0.000003 -0.000000 0.000008 -0.000003 0.000002 0.000002 -0.009090 -0.002348 -0.024224 0.000003 0.000003 0.000003 -0.000002 0.000000 -0.000000 0.000001 0.000000 -0.000002 0.032823 -0.025104 0.012281 0.000002 -0.000001 0.000000 -0.000001 0.000003 -0.000003 -0.000003 -0.000002 0.000001 -0.000000 0.000003 0.000001 0.039230 -0.011402 0.008390 -0.000000 -0.000004 0.000001 -0.000002 -0.000003 0.000001 -0.000001 0.000001 0.000001 0.000004 -0.000002 0.000003 0.043417 0.002450 0.002889 0.000001 0.000001 -0.000003 -0.000001 -0.000007 -0.000003 0.000001 -0.000003 0.000001 -0.000002 -0.000001 -0.000002 -0.016662 0.078957 0.057696 -24.860861 9.283486 -35.947501 -0.176972 -0.020537 -0.095144 -38.335454 -15.844179 62.425217 -33.273099 9.017402 49.388125 -0.000003 -0.000001 -0.000005 -0.021773 -0.038278 0.012988 0.000002 -0.000001 -0.000002 0.000000 0.000001 -0.000001 0.000000 -0.000000 -0.000006 0.000000 0.000000 0.000001 0.009114 -0.002381 -0.024212 0.000001 -0.000005 -0.000002 0.000001 -0.000002 0.000000 0.000003 0.000001 -0.000003 -0.032828 -0.025095 0.012286 0.000007 -0.000001 -0.000001 0.000001 -0.000002 -0.000003 -0.000000 -0.000002 0.000003 0.000002 0.000003 -0.000004 -0.039192 -0.011488 0.008390 0.000002 0.000000 0.000001 -0.000002 0.000002 -0.000003 0.000001 -0.000000 -0.000000 0.000000 0.000002 -0.000002 -0.043421 0.002443 0.002845 0.000000 0.000000 0.000000 -0.000005 0.000007 -0.000001 -0.000001 -0.000005 0.000000 0.000001 -0.000002 0.000002 -0.000000 0.000000 -0.000000 -1.696536 1.297847 -16.419274 -2.598229 -1.565183 -20.429019 -1.368939 0.905166 -9.170277 0.000003 0.000000 -0.000002 -0.000001 -0.000004 -0.000002 0.000000 0.000000 -0.000002 -0.038000 -0.085200 0.016200 0.000001 -0.000001 -0.000003 -0.000000 0.000000 -0.000000 -1.616810 1.275253 -15.186878 -8.088330 0.485676 5.428596 21.941129 1.979274 -20.405634 -0.000005 -0.000000 0.000002 0.000001 -0.000003 0.000004 0.000007 0.000000 -0.000001 0.038000 -0.085200 0.016200 0.000000 -0.000002 0.000003 
